<svg width="686" height="323" viewBox="0 0 686 323" fill="none" xmlns="http://www.w3.org/2000/svg">
<path d="M134.352 58.1495C137.154 53.2911 143.367 51.6268 148.224 54.4338L181.152 73.4661C186 76.2681 187.662 82.4661 184.865 87.3159L51.8711 317.92C49.0692 322.779 42.8557 324.443 37.9992 321.636L5.07051 302.604C0.222539 299.802 -1.43878 293.604 1.35818 288.754L134.352 58.1495Z" fill="white"/>
<path d="M117.984 34.2462C115.187 29.3964 116.848 23.1984 121.696 20.3963L154.625 1.36405C159.481 -1.44294 165.695 0.221373 168.496 5.07973L301.49 235.684C304.287 240.534 302.626 246.732 297.778 249.534L264.849 268.566C259.992 271.373 253.779 269.709 250.977 264.851L117.984 34.2462Z" fill="white"/>
<path d="M333.637 195.295V239.762H315.745V163.872H332.847V176.767H333.736C335.483 172.518 338.267 169.142 342.089 166.638C345.944 164.135 350.705 162.883 356.373 162.883C361.612 162.883 366.175 164.003 370.063 166.243C373.985 168.483 377.016 171.727 379.158 175.977C381.332 180.226 382.403 185.381 382.37 191.441V239.762H364.478V194.208C364.478 189.136 363.16 185.166 360.524 182.301C357.921 179.435 354.313 178.002 349.7 178.002C346.57 178.002 343.786 178.694 341.348 180.077C338.942 181.428 337.048 183.388 335.664 185.957C334.313 188.526 333.637 191.639 333.637 195.295Z" fill="white"/>
<path d="M433.575 269.802C427.149 269.802 421.63 268.929 417.017 267.184C412.404 265.471 408.697 263.165 405.897 260.267C403.096 257.368 401.152 254.156 400.064 250.632L416.177 246.729C416.902 248.211 417.956 249.677 419.34 251.126C420.724 252.608 422.586 253.827 424.925 254.782C427.298 255.77 430.28 256.265 433.871 256.265C438.945 256.265 443.146 255.029 446.474 252.559C449.802 250.121 451.466 246.103 451.466 240.503V226.126H450.577C449.654 227.97 448.303 229.864 446.524 231.808C444.777 233.751 442.455 235.381 439.555 236.699C436.688 238.017 433.08 238.675 428.731 238.675C422.899 238.675 417.61 237.308 412.865 234.574C408.154 231.808 404.397 227.69 401.597 222.222C398.829 216.722 397.445 209.837 397.445 201.57C397.445 193.236 398.829 186.204 401.597 180.473C404.397 174.708 408.17 170.344 412.915 167.38C417.66 164.382 422.948 162.883 428.78 162.883C433.229 162.883 436.886 163.641 439.753 165.156C442.652 166.638 444.959 168.434 446.672 170.542C448.386 172.617 449.687 174.577 450.577 176.421H451.565V163.872H469.21V240.997C469.21 247.486 467.661 252.855 464.564 257.104C461.467 261.354 457.233 264.532 451.862 266.64C446.491 268.748 440.395 269.802 433.575 269.802ZM433.723 224.643C437.512 224.643 440.741 223.721 443.41 221.877C446.079 220.032 448.105 217.38 449.489 213.922C450.873 210.463 451.565 206.313 451.565 201.471C451.565 196.695 450.873 192.512 449.489 188.921C448.138 185.331 446.128 182.548 443.46 180.571C440.824 178.562 437.578 177.558 433.723 177.558C429.736 177.558 426.408 178.595 423.739 180.67C421.07 182.745 419.06 185.595 417.709 189.218C416.358 192.808 415.683 196.893 415.683 201.471C415.683 206.115 416.358 210.183 417.709 213.675C419.093 217.133 421.119 219.834 423.788 221.778C426.49 223.688 429.802 224.643 433.723 224.643Z" fill="white"/>
<path d="M503.857 215.948L503.807 194.356H506.674L533.957 163.872H554.863L521.304 201.224H517.597L503.857 215.948ZM487.547 239.762V138.575H505.438V239.762H487.547ZM535.192 239.762L510.48 205.226L522.539 192.627L556.593 239.762H535.192Z" fill="white"/>
<path d="M588.633 241.294C583.822 241.294 579.489 240.438 575.634 238.725C571.812 236.979 568.781 234.41 566.54 231.017C564.332 227.624 563.228 223.441 563.228 218.467C563.228 214.185 564.019 210.644 565.601 207.845C567.182 205.045 569.341 202.805 572.076 201.125C574.81 199.445 577.891 198.177 581.318 197.321C584.778 196.431 588.353 195.789 592.043 195.394C596.491 194.933 600.099 194.521 602.867 194.159C605.635 193.763 607.645 193.171 608.897 192.38C610.182 191.557 610.825 190.288 610.825 188.576V188.279C610.825 184.557 609.721 181.675 607.513 179.633C605.306 177.591 602.126 176.569 597.974 176.569C593.592 176.569 590.116 177.525 587.546 179.435C585.008 181.346 583.295 183.602 582.405 186.204L565.7 183.832C567.018 179.221 569.192 175.367 572.224 172.271C575.255 169.142 578.962 166.803 583.344 165.255C587.727 163.674 592.57 162.883 597.875 162.883C601.533 162.883 605.174 163.312 608.798 164.168C612.423 165.024 615.734 166.441 618.733 168.417C621.731 170.361 624.136 173.012 625.949 176.372C627.794 179.732 628.717 183.931 628.717 188.971V239.762H611.517V229.337H610.924C609.836 231.445 608.304 233.422 606.327 235.266C604.383 237.078 601.928 238.544 598.963 239.663C596.03 240.75 592.587 241.294 588.633 241.294ZM593.279 228.151C596.87 228.151 599.984 227.443 602.62 226.027C605.256 224.578 607.283 222.667 608.699 220.296C610.149 217.924 610.874 215.338 610.874 212.538V203.596C610.314 204.057 609.358 204.485 608.007 204.88C606.689 205.275 605.207 205.621 603.559 205.918C601.912 206.214 600.281 206.478 598.666 206.708C597.052 206.939 595.651 207.137 594.465 207.301C591.796 207.664 589.407 208.256 587.298 209.08C585.19 209.903 583.526 211.056 582.306 212.538C581.087 213.988 580.478 215.865 580.478 218.171C580.478 221.465 581.68 223.952 584.086 225.632C586.491 227.311 589.556 228.151 593.279 228.151Z" fill="white"/>
<path d="M684.616 163.872V177.706H640.974V163.872H684.616ZM651.749 145.689H669.64V216.936C669.64 219.34 670.003 221.185 670.728 222.469C671.486 223.721 672.474 224.578 673.693 225.039C674.912 225.5 676.263 225.73 677.746 225.73C678.866 225.73 679.888 225.648 680.81 225.483C681.766 225.319 682.491 225.17 682.985 225.039L686 239.021C685.044 239.351 683.677 239.713 681.898 240.108C680.151 240.503 678.01 240.734 675.473 240.8C670.991 240.932 666.955 240.256 663.363 238.774C659.772 237.259 656.922 234.92 654.813 231.758C652.737 228.596 651.716 224.643 651.749 219.9V145.689Z" fill="white"/>
</svg>
